<svg width="144" height="144" fill="none" xmlns="http://www.w3.org/2000/svg"><rect width="144" height="144" rx="72" fill="#1F3842"/><path d="M72.5 126c30.099 0 54.5-24.4 54.5-54.5S102.599 17 72.5 17C42.4 17 18 41.4 18 71.5S42.4 126 72.5 126Z" fill="#D4145A"/><path d="M72.5 17C42.136 17 18 41.136 18 71.5S42.136 126 72.5 126 127 101.864 127 71.5 102.864 17 72.5 17Zm0 93.429c-21.8 0-38.928-17.129-38.928-38.929S50.7 32.572 72.5 32.572c21.8 0 38.928 17.128 38.928 38.928 0 21.8-17.128 38.929-38.928 38.929Z" fill="#fff" fill-opacity=".2"/><path d="M72.5 125.221C102.864 126 127 101.085 127 71.5h-.779c-3.893 0-7.007 3.115-7.785 7.007-1.557 10.9-7.008 21.021-14.793 28.029-6.228 6.228-14.793 10.121-24.136 11.679a6.977 6.977 0 0 0-7.007 7.006Z" fill="#000" fill-opacity=".2"/><path d="M72.5 17.779C42.136 17 18 41.915 18 71.5h.779c3.893 0 7.007-3.115 7.785-7.007 1.557-10.9 7.008-21.021 14.793-28.029 6.228-6.228 14.793-10.12 24.136-11.678a6.977 6.977 0 0 0 7.007-7.007Z" fill="#000" fill-opacity=".1"/><path d="M39.022 76.95c0-21.8 17.128-38.929 38.928-38.929 9.343 0 17.908 3.115 24.914 9.343-7.785-9.343-17.907-14.792-30.364-14.792-21.8 0-38.928 17.128-38.928 38.928 0 12.457 5.45 22.578 14.013 29.586-5.45-6.229-8.563-14.793-8.563-24.136Z" fill="#000" fill-opacity=".4"/><path d="M49 87h18.988v-5.23H55.272V57H49v30ZM72.666 87h6.271v-9.727h5.273c6.821 0 10.79-4.116 10.79-10.107C95 61.204 91.104 57 84.369 57H72.666v30Zm6.271-14.81V62.185h4.23c3.62 0 5.373 1.993 5.373 4.981 0 2.974-1.752 5.024-5.344 5.024h-4.259Z" fill="#000" fill-opacity=".4"/></svg>