<svg width="144" height="144" fill="none" xmlns="http://www.w3.org/2000/svg"><rect width="144" height="144" rx="72" fill="#1F3842"/><path d="M72.5 126c30.099 0 54.5-24.4 54.5-54.5S102.599 17 72.5 17C42.4 17 18 41.4 18 71.5S42.4 126 72.5 126Z" fill="#D4145A"/><path d="M72.5 17C42.136 17 18 41.136 18 71.5S42.136 126 72.5 126 127 101.864 127 71.5 102.864 17 72.5 17Zm0 93.429c-21.8 0-38.928-17.129-38.928-38.929S50.7 32.572 72.5 32.572c21.8 0 38.928 17.128 38.928 38.928 0 21.8-17.128 38.929-38.928 38.929Z" fill="#fff" fill-opacity=".2"/><path d="M72.5 125.221C102.864 126 127 101.085 127 71.5h-.779c-3.893 0-7.007 3.115-7.785 7.007-1.557 10.9-7.008 21.021-14.793 28.029-6.228 6.228-14.793 10.121-24.136 11.679a6.977 6.977 0 0 0-7.007 7.006Z" fill="#000" fill-opacity=".2"/><path d="M72.5 17.779C42.136 17 18 41.915 18 71.5h.779c3.893 0 7.007-3.115 7.785-7.007 1.557-10.9 7.008-21.021 14.793-28.029 6.228-6.228 14.793-10.12 24.136-11.678a6.977 6.977 0 0 0 7.007-7.007Z" fill="#000" fill-opacity=".1"/><path d="M39.022 76.95c0-21.8 17.128-38.929 38.928-38.929 9.343 0 17.908 3.115 24.914 9.343-7.785-9.343-17.907-14.792-30.364-14.792-21.8 0-38.928 17.128-38.928 38.928 0 12.457 5.45 22.578 14.013 29.586-5.45-6.229-8.563-14.793-8.563-24.136Z" fill="#000" fill-opacity=".4"/><path d="M54.368 74.68a18.07 18.07 0 0 1-.13-2.084c0-9.48 7.732-17.3 17.107-17.3 4.373 0 8.467 1.783 11.478 4.563l-1.51 1.554c-.34.344-.471.847-.34 1.324.157.45.523.794.995.9.263.054 8.921 2.875 8.37 2.763.702.236 1.739-.52 1.545-1.562-.053-.267-1.97-9.993-1.859-9.436-.105-.477-.445-.874-.916-1.006-.445-.133-.943 0-1.283.344l-1.283 1.27C82.588 52.278 77.158 50 71.345 50 59.065 50 49 60.177 49 72.596v.053c0 .746.034 1.323.073 1.764a1.318 1.318 0 0 0 1.048 1.18l2.69.543c.875.178 1.662-.565 1.557-1.456ZM92.887 69.42l-2.698-.555c-.876-.181-1.67.562-1.561 1.456.093.773.135 1.523.135 2.096 0 9.474-7.734 17.29-17.109 17.29-4.373 0-8.467-1.782-11.478-4.587l1.51-1.526c.34-.344.471-.847.34-1.323a1.375 1.375 0 0 0-.995-.9c-.263-.054-8.922-2.873-8.37-2.761-.446-.08-.891.053-1.179.37-.314.291-.445.767-.367 1.19l1.86 9.343c.104.476.445.873.916 1.005.547.139 1.003-.029 1.283-.344l1.257-1.27C60.385 92.636 65.815 95 71.654 95 83.936 95 94 84.829 94 72.417v-.08c0-.586-.021-1.162-.07-1.734a1.318 1.318 0 0 0-1.043-1.183Z" fill="#000" fill-opacity=".4"/></svg>