<svg width="300" height="239" viewBox="0 0 300 239" fill="none" xmlns="http://www.w3.org/2000/svg">
<path d="M14.1609 238.12C11.8533 238.12 9.54561 238.058 7.26915 237.902C4.86795 237.741 2.48142 237.407 0.12793 236.905V196.095C2.24262 195.709 4.37669 195.439 6.52073 195.284C8.82837 195.097 10.9801 195.004 12.9759 195.004C15.4522 194.982 17.9255 195.18 20.3666 195.596C22.4021 195.898 24.3667 196.563 26.1669 197.56C27.7347 198.433 29.0464 199.701 29.9714 201.239C30.8757 202.767 31.3435 204.637 31.3435 206.851C31.3435 210.218 29.7219 212.868 26.4787 214.801C29.1606 215.798 30.9693 217.201 31.936 218.916C32.923 220.721 33.4278 222.751 33.4017 224.808C33.4017 229.235 31.7801 232.54 28.5681 234.753C25.2937 237.029 20.5225 238.12 14.1609 238.12ZM9.35851 212.026H13.9738C16.9051 212.026 18.9633 211.652 20.2419 210.904C21.4892 210.155 22.1129 208.939 22.1129 207.287C22.1129 205.572 21.458 204.388 20.1795 203.702C18.8697 203.016 16.9675 202.673 14.4727 202.673C13.662 202.673 12.7888 202.673 11.8533 202.704C10.9177 202.735 10.1069 202.767 9.35851 202.86V212.026ZM9.35851 219.259V230.139C10.0446 230.233 10.793 230.295 11.6038 230.326C12.4146 230.358 13.3189 230.389 14.2856 230.389C17.1234 230.389 19.3999 229.983 21.1462 229.173C22.8925 228.362 23.7657 226.866 23.7657 224.683C23.7657 222.751 23.0484 221.348 21.5828 220.537C20.1171 219.695 18.0278 219.29 15.3147 219.29L9.35851 219.259Z" fill="white"/>
<path d="M46.9039 196.406C46.9039 198.058 46.3738 199.368 45.2823 200.334C44.2306 201.259 42.8782 201.768 41.4778 201.768C40.0775 201.768 38.7251 201.259 37.6733 200.334C36.6131 199.368 36.0518 198.09 36.0518 196.406C36.0518 194.754 36.5819 193.444 37.6733 192.478C38.7171 191.54 40.0748 191.029 41.4778 191.044C42.8825 191.02 44.2433 191.533 45.2823 192.478C46.3738 193.444 46.9039 194.754 46.9039 196.406ZM46.0307 237.59H36.9873V205.634H46.0307V237.59Z" fill="white"/>
<path d="M50.8956 197.686L59.9391 196.221V205.636H70.8224V213.181H59.9391V224.404C59.9391 226.306 60.2821 227.834 60.937 228.956C61.5918 230.078 62.9639 230.671 64.9909 230.671C65.9952 230.667 66.9972 230.573 67.9846 230.39C68.9494 230.218 69.8985 229.968 70.8224 229.642L72.101 236.688C70.9159 237.164 69.6962 237.55 68.4524 237.841C66.8343 238.194 65.1813 238.361 63.5253 238.34C61.0617 238.34 59.0035 237.997 57.3819 237.342C55.8598 236.763 54.5158 235.796 53.4839 234.536C52.4784 233.27 51.7841 231.786 51.4569 230.203C51.0568 228.349 50.8582 226.457 50.8644 224.56L50.8956 197.686Z" fill="white"/>
<path d="M72.1011 221.628C72.0853 219.406 72.4654 217.2 73.2237 215.112C73.93 213.118 75.0432 211.293 76.4927 209.753C77.9422 208.213 79.6962 206.991 81.6435 206.164C83.8305 205.233 86.19 204.777 88.5664 204.824C90.138 204.809 91.7065 204.966 93.2441 205.291C94.6536 205.6 96.0316 206.038 97.3604 206.601L95.4893 213.834C94.5709 213.499 93.6338 213.218 92.6827 212.992C91.5689 212.731 90.4276 212.605 89.2836 212.618C86.6018 212.618 84.606 213.459 83.2962 215.112C81.9865 216.764 81.3316 218.946 81.3316 221.659C81.3316 224.527 81.9553 226.772 83.1715 228.331C84.4189 229.921 86.5706 230.7 89.6267 230.7C90.8081 230.698 91.9871 230.593 93.1505 230.388C94.3392 230.207 95.5015 229.883 96.612 229.422L97.8905 236.842C96.6113 237.355 95.2848 237.741 93.9301 237.995C92.204 238.331 90.4495 238.498 88.6911 238.494C85.7598 238.494 83.2651 238.058 81.1445 237.185C79.1658 236.402 77.3866 235.188 75.9367 233.631C74.5637 232.109 73.5511 230.297 72.9742 228.331C72.3924 226.144 72.0988 223.89 72.1011 221.628Z" fill="white"/>
<path d="M129.044 221.567C129.067 223.908 128.698 226.237 127.953 228.457C127.294 230.438 126.22 232.255 124.803 233.788C123.413 235.271 121.723 236.44 119.845 237.217C115.705 238.839 111.105 238.839 106.965 237.217C105.088 236.44 103.397 235.271 102.007 233.788C100.588 232.246 99.495 230.433 98.7952 228.457C98.0012 226.248 97.6104 223.914 97.6413 221.567C97.6148 219.228 98.0165 216.903 98.8264 214.708C99.541 212.744 100.656 210.95 102.101 209.439C103.509 207.972 105.209 206.815 107.09 206.041C109.087 205.217 111.229 204.804 113.389 204.825C115.57 204.801 117.733 205.214 119.751 206.041C121.627 206.807 123.318 207.966 124.709 209.439C126.128 210.958 127.221 212.751 127.921 214.708C128.68 216.915 129.06 219.234 129.044 221.567ZM119.813 221.567C119.813 218.761 119.252 216.579 118.129 214.989C117.007 213.399 115.416 212.588 113.358 212.588C111.3 212.588 109.679 213.399 108.556 214.989C107.433 216.579 106.841 218.792 106.841 221.567C106.841 224.373 107.402 226.586 108.556 228.208C109.679 229.86 111.3 230.67 113.358 230.67C115.416 230.67 117.007 229.86 118.129 228.208C119.252 226.555 119.813 224.342 119.813 221.567Z" fill="white"/>
<path d="M142.578 196.406C142.578 198.058 142.048 199.368 140.956 200.334C139.904 201.259 138.552 201.768 137.152 201.768C135.751 201.768 134.399 201.259 133.347 200.334C132.287 199.368 131.726 198.09 131.726 196.406C131.726 194.754 132.256 193.444 133.347 192.478C134.391 191.54 135.749 191.029 137.152 191.044C138.556 191.02 139.917 191.533 140.956 192.478C142.048 193.444 142.578 194.754 142.578 196.406ZM141.736 237.59H132.692V205.634H141.736V237.59Z" fill="white"/>
<path d="M146.882 206.726C148.84 206.189 150.829 205.772 152.838 205.479C155.366 205.088 157.92 204.889 160.478 204.887C163.191 204.887 165.437 205.23 167.245 205.947C168.906 206.555 170.379 207.587 171.517 208.94C172.601 210.291 173.368 211.867 173.763 213.554C174.218 215.505 174.438 217.504 174.418 219.508V237.56H165.374V220.6C165.374 217.669 165 215.611 164.22 214.396C163.441 213.18 162.006 212.587 159.917 212.587C159.262 212.587 158.576 212.618 157.859 212.681C157.141 212.743 156.487 212.806 155.925 212.899V237.56H146.882V206.726Z" fill="white"/>
<path d="M199.146 238.433C192.286 238.433 187.067 236.531 183.492 232.728C179.905 228.924 178.118 223.52 178.128 216.516C178.079 213.332 178.64 210.168 179.781 207.194C180.776 204.598 182.306 202.24 184.271 200.273C186.206 198.38 188.524 196.924 191.069 196.002C193.818 195.009 196.722 194.513 199.645 194.537C201.276 194.519 202.905 194.655 204.51 194.942C205.807 195.157 207.089 195.459 208.346 195.846C209.287 196.127 210.204 196.482 211.09 196.906C211.807 197.28 212.337 197.561 212.68 197.748L209.936 205.386C208.496 204.643 206.98 204.057 205.414 203.64C203.503 203.128 201.53 202.886 199.552 202.923C198.098 202.926 196.654 203.168 195.279 203.64C193.886 204.139 192.62 204.937 191.568 205.978C190.428 207.167 189.547 208.579 188.98 210.125C188.325 211.84 188.013 213.897 188.013 216.329C188.006 218.155 188.215 219.976 188.637 221.754C189.021 223.323 189.722 224.797 190.695 226.087C191.692 227.339 192.976 228.333 194.437 228.987C195.965 229.704 197.836 230.047 200.019 230.047C201.261 230.051 202.501 229.967 203.73 229.797C204.72 229.666 205.699 229.468 206.662 229.205C207.428 229.012 208.178 228.762 208.907 228.457C209.562 228.176 210.154 227.895 210.653 227.677L213.273 235.284C211.932 236.095 210.061 236.812 207.628 237.467C204.854 238.152 202.003 238.477 199.146 238.433Z" fill="#F7941D"/>
<path d="M227.462 204.793C230.144 204.793 232.358 205.105 234.136 205.697C235.76 206.191 237.231 207.093 238.408 208.316C239.493 209.48 240.275 210.893 240.684 212.431C241.138 214.193 241.358 216.006 241.339 217.825V236.655C240.029 236.936 238.252 237.279 235.944 237.653C233.168 238.072 230.363 238.27 227.556 238.245C225.67 238.263 223.788 238.075 221.942 237.684C220.4 237.366 218.93 236.764 217.608 235.907C216.404 235.09 215.437 233.972 214.801 232.665C214.146 231.324 213.835 229.703 213.835 227.739C213.784 226.088 214.171 224.453 214.957 223C215.669 221.728 216.701 220.664 217.951 219.913C219.275 219.104 220.732 218.534 222.254 218.23C223.915 217.878 225.608 217.7 227.306 217.7C228.348 217.698 229.389 217.75 230.425 217.856C231.175 217.914 231.917 218.05 232.639 218.261V217.419C232.639 215.892 232.171 214.645 231.235 213.709C230.3 212.774 228.678 212.306 226.371 212.306C224.847 212.311 223.325 212.426 221.818 212.649C220.489 212.825 219.183 213.139 217.92 213.585L216.766 206.289C217.296 206.134 217.951 205.946 218.73 205.759C219.51 205.572 220.383 205.416 221.319 205.261C222.254 205.105 223.221 205.011 224.25 204.886C225.342 204.855 226.402 204.793 227.462 204.793ZM228.179 231.262C229.084 231.262 229.926 231.23 230.736 231.199C231.385 231.185 232.031 231.123 232.67 231.012V224.153C232.124 224.042 231.572 223.959 231.017 223.904C230.355 223.82 229.689 223.778 229.021 223.779C228.218 223.782 227.417 223.834 226.62 223.935C225.933 224.005 225.266 224.206 224.656 224.528C224.116 224.789 223.654 225.187 223.315 225.681C222.978 226.224 222.805 226.851 222.816 227.489C222.816 228.892 223.283 229.89 224.25 230.42C225.217 231.012 226.527 231.262 228.179 231.262Z" fill="#F7941D"/>
<path d="M255.404 231.106C257.056 231.106 258.241 230.95 258.927 230.607C259.613 230.295 259.956 229.641 259.956 228.736C259.956 228.019 259.52 227.365 258.616 226.835C257.314 226.097 255.946 225.481 254.53 224.995C253.212 224.516 251.921 223.965 250.664 223.343C249.581 222.833 248.591 222.149 247.732 221.316C246.913 220.515 246.276 219.548 245.861 218.479C245.393 217.213 245.171 215.869 245.206 214.52C245.206 211.527 246.329 209.158 248.543 207.412C250.757 205.666 253.813 204.793 257.711 204.793C259.584 204.792 261.454 204.969 263.293 205.323C264.737 205.573 266.156 205.948 267.534 206.445L265.944 213.491C264.821 213.101 263.675 212.779 262.514 212.525C261.152 212.226 259.76 212.08 258.366 212.088C255.528 212.088 254.125 212.868 254.125 214.458C254.118 214.789 254.181 215.119 254.312 215.424C254.478 215.751 254.725 216.03 255.029 216.235C255.504 216.557 256.005 216.838 256.526 217.076C257.306 217.457 258.108 217.79 258.927 218.074C260.619 218.686 262.265 219.415 263.855 220.256C264.992 220.855 266.024 221.634 266.911 222.563C267.632 223.353 268.174 224.289 268.501 225.307C268.832 226.451 268.99 227.639 268.969 228.83C268.969 231.979 267.784 234.379 265.414 235.969C263.044 237.59 259.707 238.401 255.372 238.401C252.993 238.445 250.616 238.205 248.294 237.684C246.961 237.355 245.649 236.949 244.364 236.468L245.892 229.111C247.431 229.715 249.016 230.195 250.632 230.545C252.196 230.916 253.797 231.104 255.404 231.106Z" fill="#F7941D"/>
<path d="M272.336 237.592V191.918L281.379 190.453V205.761C282.147 205.518 282.928 205.321 283.718 205.168C284.632 204.986 285.562 204.892 286.494 204.888C289.082 204.888 291.234 205.231 292.949 205.948C294.551 206.582 295.967 207.612 297.065 208.941C298.117 210.303 298.862 211.877 299.248 213.555C299.693 215.508 299.902 217.507 299.872 219.509V237.561H290.828V220.601C290.828 217.67 290.454 215.612 289.706 214.397C288.957 213.181 287.554 212.588 285.558 212.588C284.794 212.579 284.03 212.652 283.282 212.807C282.64 212.929 282.005 213.086 281.379 213.274V237.561H272.336V237.592Z" fill="#F7941D"/>
<path d="M214.959 185.957C244.116 165.505 263.17 131.648 263.17 93.3301C263.17 55.0125 244.117 21.1235 214.959 0.671875H299.999V185.957H214.959Z" fill="#F7941D"/>
<path d="M36.9223 93.2989C36.9223 131.615 55.976 165.472 85.1334 185.926H0V0.671875H85.1352C55.976 21.1235 36.9223 54.981 36.9223 93.2989Z" fill="#F7941D"/>
<path d="M150 185.818C201.135 185.818 242.588 144.375 242.588 93.2536C242.588 42.1318 201.135 0.689453 150 0.689453C98.8652 0.689453 57.4121 42.1318 57.4121 93.2536C57.4121 144.375 98.8652 185.818 150 185.818Z" fill="#F7941D"/>
<path d="M193.426 97.0995L193.375 97.0038L193.366 96.9879C193.335 96.8916 193.311 96.7909 193.276 96.6868L193.272 96.6786L193.267 96.6705L193.263 96.6624L193.258 96.6543L193.254 96.6462L193.25 96.6381L193.241 96.6222C192.154 92.9887 189.999 89.7659 187.057 87.3725L187.052 87.3644C186.965 87.298 186.874 87.2238 186.787 87.1577L186.666 87.0682L186.579 87.0021L186.542 86.971L186.459 86.9127L186.422 86.8815L186.339 86.8232L186.301 86.792L186.214 86.7259L186.169 86.6988L186.082 86.6327L186.036 86.6056L185.943 86.5432L185.897 86.5161L185.842 86.4325L185.792 86.3976L185.699 86.3353L185.649 86.3004L185.556 86.238L185.506 86.2031L185.412 86.1407L185.363 86.1058L185.263 86.036L185.214 86.0011L185.106 85.9353L185.057 85.9004L184.95 85.8346L184.9 85.7997L184.793 85.7339L184.743 85.699L184.636 85.6332L184.578 85.602L184.471 85.5362L184.413 85.505L184.298 85.4427L184.24 85.4115L184.12 85.3423L184.063 85.3111L183.943 85.2419L183.885 85.2107L183.766 85.1415L183.703 85.1029L183.583 85.0337L183.521 84.995L183.394 84.9298L183.331 84.8912L183.204 84.826L183.117 84.7799L183.113 84.7718C183.051 84.7331 182.986 84.7066 182.924 84.668C180.276 83.3078 177.418 82.4049 174.469 81.9974C175.296 81.1089 176.053 80.1581 176.734 79.1535L176.843 78.9923L176.851 78.9879L176.901 78.9094L176.967 78.8021L177.002 78.7526L177.068 78.6453L177.103 78.5957L177.169 78.4885L177.203 78.4389L177.269 78.3317L177.304 78.2821L177.37 78.1749L177.405 78.1253L177.463 78.0221L177.498 77.9725L177.555 77.8693L177.582 77.8238L177.64 77.7206L177.667 77.6751L177.725 77.5719L177.752 77.5264L177.801 77.4276L177.828 77.3821L177.878 77.2832L177.905 77.2377L177.955 77.1389L177.982 77.0934L178.035 77.0026L178.063 76.9571L178.117 76.8664L178.144 76.8209L178.19 76.7345L178.217 76.689L178.263 76.6026L178.282 76.5615L178.328 76.4751L178.347 76.434L178.393 76.3476L178.412 76.3065L178.459 76.2201L178.478 76.179L178.516 76.0967L178.535 76.0555L178.573 75.9732L178.592 75.932L178.63 75.8497L178.649 75.8086L178.691 75.7151L178.748 75.5904C178.789 75.4968 178.823 75.4058 178.865 75.3098L178.873 75.3054C180.142 72.1791 180.439 68.7433 179.727 65.4456L179.722 65.4375L179.713 65.4216L179.709 65.4135L179.705 65.4054L179.7 65.3973L179.696 65.3891L179.692 65.381L179.687 65.3729C179.668 65.2794 179.649 65.1877 179.622 65.0992V65.0814L179.618 65.0733L179.614 65.0652L179.575 64.9935C179.547 64.8648 179.519 64.736 179.478 64.6035C179.45 64.4747 179.409 64.3422 179.373 64.2175L179.326 64.1299L179.317 64.114C179.29 64.0258 179.263 63.9373 179.236 63.849L179.232 63.8409L179.228 63.8328L179.223 63.8247L179.219 63.8166L179.215 63.8085L179.21 63.8004L179.206 63.7923C178.241 60.5586 176.324 57.6905 173.705 55.5617L173.701 55.5536C173.626 55.4913 173.543 55.4327 173.468 55.3703L173.365 55.2924L173.282 55.2341L173.245 55.2029L173.174 55.1483L173.137 55.1172L173.066 55.0626L173.029 55.0314L172.95 54.9812L172.912 54.9501L172.83 54.8918L172.792 54.8606L172.709 54.8023L172.672 54.7711L172.589 54.7128L172.544 54.6857L172.461 54.6274L172.415 54.6003L172.332 54.542L172.287 54.5148L172.196 54.4609L172.15 54.4338L172.06 54.3799L172.014 54.3527L171.923 54.2988L171.878 54.2717L171.787 54.2177L171.741 54.1906L171.646 54.1283L171.601 54.1011L171.506 54.0388L171.46 54.0117L171.357 53.954L171.311 53.9269L171.209 53.8692L171.159 53.8343L171.056 53.7766L171.006 53.7417L170.903 53.684L170.854 53.6491L170.746 53.5833L170.689 53.5521L170.579 53.4838L170.521 53.4527L170.406 53.3903L170.348 53.3591L170.232 53.2968L170.15 53.2587L170.146 53.2506L169.973 53.1571C164.916 50.5299 158.493 49.7389 152.03 51.3966L150.349 51.8281L146.096 35.2734L136.242 37.7987L140.48 54.2879L132.596 56.3209L128.355 39.8844L118.501 42.4097L122.739 58.8989L102.417 64.1268L105.121 74.6332L113.309 72.5307C114.611 72.1953 115.992 72.3905 117.15 73.0733C118.307 73.7561 119.146 74.8707 119.481 76.1718L119.484 76.1818L130.85 120.395C131.072 121.263 130.941 122.185 130.485 122.957C130.029 123.728 129.285 124.288 128.417 124.512L121.242 126.358L121.664 138.853L141.962 133.638L146.255 150.097L156.104 147.564L151.863 131.066L159.746 129.046L163.988 145.543L173.838 143.009L169.581 126.448C171.25 126.011 172.685 125.641 173.679 125.384C180.962 123.511 186.852 119.242 190.416 113.919L190.536 113.741L190.544 113.737L190.603 113.654L190.68 113.529L190.719 113.467L190.796 113.342L190.835 113.28L190.904 113.16L190.943 113.098L191.012 112.978L191.043 112.92L191.112 112.801L191.143 112.743L191.213 112.623L191.244 112.565L191.306 112.45L191.337 112.392L191.4 112.277L191.431 112.219L191.497 112.112L191.528 112.054L191.594 111.947L191.625 111.89L191.683 111.786L191.714 111.729L191.772 111.626L191.803 111.568L191.86 111.465L191.883 111.412L191.941 111.309L191.964 111.256L192.013 111.157L192.04 111.111L192.09 111.013L192.117 110.967L192.167 110.868L192.194 110.823L192.243 110.724L192.27 110.678L192.32 110.58L192.347 110.534L192.397 110.435L192.424 110.39L192.466 110.296L192.493 110.251L192.534 110.157L192.553 110.116L192.599 110.009L192.661 109.874C192.707 109.767 192.755 109.668 192.794 109.566L192.798 109.554C194.223 106.037 194.559 102.173 193.76 98.4629L193.756 98.4548L193.751 98.4467L193.747 98.4385L193.743 98.4304L193.738 98.4223L193.734 98.4142L193.73 98.4061L193.725 98.398C193.702 98.2973 193.679 98.1969 193.655 98.0962V98.076L193.651 98.0679L193.647 98.0598L193.642 98.0516L193.638 98.0435L193.634 98.0354L193.629 98.0273L193.625 98.0192L193.62 98.0111L193.616 98.003L193.612 97.9949L193.607 97.9868L193.603 97.9787L193.599 97.9706L193.581 97.9394C193.545 97.7948 193.516 97.6457 193.471 97.5051C193.448 97.3709 193.433 97.2355 193.426 97.0995ZM135.529 67.5222C137.21 67.0907 144.161 65.3455 146.453 64.7497C150.097 63.8172 153.688 64.1792 156.491 65.5291L156.585 65.5709L156.626 65.5899L156.684 65.6211L156.712 65.6364L156.77 65.6675L156.799 65.6828L156.857 65.714L156.885 65.7293L156.943 65.7605L156.972 65.7757L157.029 65.8069L157.058 65.8222L157.116 65.8534L157.144 65.8686L157.202 65.8998L157.231 65.9151L157.288 65.9463L157.317 65.9615L157.375 65.9927L157.404 66.008L157.453 66.0429L157.482 66.0582L157.531 66.0931L157.56 66.1084L157.61 66.1433L157.638 66.1586L157.684 66.1857L157.713 66.201L157.758 66.2281L157.787 66.2434L157.832 66.2705L157.861 66.2858L157.907 66.3129L157.935 66.3282L157.981 66.3553L158.002 66.3749L158.047 66.4021L158.064 66.4136L158.109 66.4407L158.126 66.4523L158.171 66.4794L158.188 66.4909L158.233 66.518L158.25 66.5296L158.287 66.5608L158.304 66.5723L158.349 66.5994L158.412 66.6381C158.457 66.6652 158.499 66.7045 158.544 66.7316C159.979 67.8146 161.034 69.3249 161.556 71.0452L161.569 71.0692C161.582 71.1134 161.6 71.1655 161.613 71.2098L161.618 71.2179L161.644 71.2656C161.662 71.3379 161.684 71.3981 161.703 71.4704C161.723 71.5442 161.736 71.6198 161.742 71.6961L161.768 71.7438L161.772 71.7519C161.779 71.8013 161.791 71.8499 161.809 71.8966L161.822 71.9206C162.19 73.6787 161.994 75.5084 161.26 77.1482L161.196 77.296L161.162 77.3658L161.134 77.4114L161.127 77.436L161.108 77.4771L161.1 77.5018L161.073 77.5473L161.066 77.5719L161.039 77.6174L161.031 77.6421L161.004 77.6876L160.997 77.7122L160.969 77.7577L160.962 77.7824L160.935 77.8279L160.927 77.8525L160.9 77.898L160.885 77.9267L160.858 77.9722L160.843 78.0009L160.816 78.0464L160.8 78.0751L160.773 78.1206L160.758 78.1493L160.723 78.1989L160.708 78.2276L160.673 78.2771L160.657 78.3058L160.622 78.3554L160.607 78.3841L160.572 78.4336L160.557 78.4623L160.522 78.5119L160.507 78.5406L160.472 78.5901L160.456 78.6188L160.422 78.6684L160.406 78.6971L160.371 78.7466L160.356 78.7753L160.313 78.8293L160.298 78.8579L160.255 78.9119L160.239 78.9406L160.196 78.9945L160.181 79.0232L160.138 79.0771L160.107 79.1145L160.049 79.1975C158.236 81.7358 155.267 83.7866 151.623 84.7191C149.326 85.3071 142.392 87.1247 140.713 87.5561L135.529 67.5222ZM174.045 101.418L174.071 101.466L174.076 101.474C174.085 101.53 174.099 101.575 174.109 101.63L174.113 101.638L174.117 101.646L174.122 101.654L174.126 101.662C174.515 103.601 174.236 105.615 173.334 107.375L173.246 107.535L173.203 107.61L173.172 107.667L173.157 107.696L173.129 107.742L173.114 107.77L173.087 107.816L173.072 107.844L173.037 107.894L173.022 107.923L172.987 107.972L172.971 108.001L172.936 108.051L172.921 108.079L172.886 108.129L172.871 108.157L172.836 108.207L172.821 108.236L172.786 108.285L172.771 108.314L172.736 108.364L172.72 108.392L172.685 108.442L172.67 108.47L172.635 108.52L172.62 108.549L172.577 108.603L172.562 108.631L172.519 108.685L172.503 108.714L172.465 108.776L172.449 108.805L172.411 108.867L172.395 108.896L172.357 108.958L172.333 108.991L172.295 109.054L172.271 109.087L172.225 109.153L172.201 109.186L172.154 109.252L172.131 109.285L172.084 109.351L172.061 109.384L172.014 109.45L171.99 109.483L171.944 109.549L171.904 109.591L171.83 109.683C169.629 112.492 166.08 114.803 161.768 115.91C159.049 116.612 150.834 118.76 148.835 119.27L143.242 97.5132C145.238 96.9951 153.475 94.9275 156.194 94.2257C160.505 93.1192 164.738 93.4332 168.01 94.8299L168.117 94.8754L168.17 94.8982L168.248 94.9293L168.285 94.9402L168.355 94.9745L168.391 94.9855L168.461 95.0197L168.498 95.0307L168.568 95.0649L168.596 95.0802L168.666 95.1145L168.695 95.1298L168.765 95.1641L168.793 95.1794L168.863 95.2137L168.892 95.2289L168.95 95.2601L168.978 95.2754L169.036 95.3066L169.065 95.3218L169.122 95.353L169.151 95.3683L169.209 95.3995L169.237 95.4148L169.295 95.4459L169.324 95.4612L169.381 95.4924L169.41 95.5077L169.468 95.5388L169.497 95.5541L169.554 95.5853L169.583 95.6006L169.641 95.6317L169.669 95.647L169.719 95.6819L169.748 95.6972L169.797 95.7321L169.826 95.7474L169.875 95.7823L169.904 95.7976L169.954 95.8325L169.982 95.8478L170.032 95.8827L170.061 95.898L170.106 95.9251L170.135 95.9404L170.184 95.9753L170.251 96.0221C170.3 96.057 170.358 96.0878 170.406 96.1228C172.043 97.2325 173.257 98.8619 173.853 100.747L173.87 100.778C173.888 100.83 173.901 100.875 173.919 100.927L173.923 100.935L173.949 100.983C173.968 101.055 173.986 101.127 174.009 101.208C174.049 101.225 174.056 101.314 174.043 101.424L174.045 101.418Z" fill="white"/>
</svg>
