<svg width="300" height="69" viewBox="0 0 300 69" fill="none" xmlns="http://www.w3.org/2000/svg">
<path fill-rule="evenodd" clip-rule="evenodd" d="M15.0945 6.39578C20.6797 2.66381 27.2463 0.671875 33.9636 0.671875C38.4238 0.671875 42.8403 1.55037 46.9609 3.2572C51.0816 4.96403 54.8257 7.46578 57.9795 10.6196C61.1334 13.7734 63.6351 17.5175 65.3419 21.6382C67.0488 25.7588 67.9273 30.1753 67.9273 34.6355C67.9273 41.3529 65.9353 47.9194 62.2034 53.5047C58.4714 59.09 53.167 63.4432 46.9609 66.0138C40.7549 68.5844 33.926 69.257 27.3377 67.9465C20.7494 66.636 14.6976 63.4013 9.94773 58.6514C5.19783 53.9015 1.96311 47.8498 0.652617 41.2615C-0.657877 34.6732 0.0147159 27.8442 2.58534 21.6382C5.15597 15.4321 9.50917 10.1277 15.0945 6.39578ZM30.9813 47.6738L34.5141 35.7528L39.9611 34.1672L41.1195 30.2483L35.7218 31.8915L41.4728 12.3135C41.5135 12.1691 41.5201 12.0172 41.4921 11.8698C41.4641 11.7224 41.4023 11.5834 41.3115 11.464C41.2207 11.3445 41.1034 11.2478 40.9689 11.1813C40.8343 11.1149 40.6862 11.0806 40.5362 11.0811H33.2242C32.9427 11.0816 32.669 11.1743 32.445 11.3448C32.221 11.5154 32.059 11.7546 31.9837 12.0259L25.1318 35.1777L19.7259 36.8209L18.5346 40.674L23.9323 39.0309L19.0522 55.5115H47.9139C48.1954 55.512 48.4695 55.4209 48.6948 55.2519C48.92 55.083 49.0842 54.8454 49.1626 54.575L50.8058 48.9143C50.8478 48.7701 50.8557 48.618 50.8289 48.4701C50.8021 48.3223 50.7412 48.1827 50.6512 48.0624C50.5612 47.9421 50.4444 47.8443 50.3101 47.7769C50.1758 47.7095 50.0277 47.6742 49.8774 47.6738H30.9813Z" fill="#A5A8A9"/>
<path d="M124.038 57.2499H118.247V24.8722H124.038V57.2499Z" fill="#A5A8A9"/>
<path d="M121.111 19.0193C120.074 19.0193 119.181 18.6872 118.434 18.0231C117.728 17.3174 117.376 16.3834 117.376 15.2211C117.376 14.0589 117.728 13.1456 118.434 12.4815C119.181 11.7758 120.074 11.423 121.111 11.423C122.149 11.423 123.021 11.7758 123.727 12.4815C124.474 13.1456 124.848 14.0589 124.848 15.2211C124.848 16.3834 124.474 17.3174 123.727 18.0231C123.021 18.6872 122.149 19.0193 121.111 19.0193Z" fill="#A5A8A9"/>
<path d="M112.298 52.0198V57.25H86.3333V14.1005H92.3729V52.0198H112.298Z" fill="#A5A8A9"/>
<path d="M151.679 24.8722H139.413V14.8476L133.622 15.8438V44.7347C133.622 46.8932 133.789 48.8027 134.121 50.4631C134.494 52.0819 135.117 53.4518 135.989 54.5724C136.86 55.6935 138.002 56.5443 139.413 57.1253C140.866 57.6648 142.692 57.9351 144.892 57.9351C146.76 57.9351 148.421 57.7064 149.874 57.2499C151.326 56.835 152.343 56.4822 152.924 56.1914L151.804 51.397C151.389 51.5631 150.641 51.8536 149.562 52.2688C148.524 52.6423 147.134 52.8291 145.39 52.8291C144.394 52.8291 143.523 52.7046 142.775 52.4555C142.028 52.2065 141.406 51.7914 140.908 51.2102C140.409 50.5876 140.036 49.7574 139.787 48.7196C139.537 47.6404 139.413 46.2913 139.413 44.6724V29.7289H151.679V24.8722Z" fill="#A5A8A9"/>
<path fill-rule="evenodd" clip-rule="evenodd" d="M156.634 41.1232C156.634 38.2591 157.049 35.7685 157.88 33.6515C158.709 31.493 159.809 29.708 161.179 28.2967C162.55 26.8853 164.127 25.8269 165.912 25.1212C167.696 24.4155 169.523 24.0627 171.391 24.0627C175.749 24.0627 179.091 25.4325 181.416 28.1721C183.74 30.8703 184.903 35.0005 184.903 40.5629V41.5591C184.903 41.9327 184.882 42.2855 184.84 42.6176H162.674C162.923 45.9799 163.898 48.5328 165.6 50.2762C167.302 52.0196 169.959 52.8913 173.57 52.8913C175.604 52.8913 177.306 52.7253 178.676 52.3932C180.087 52.0196 181.146 51.6668 181.852 51.3347L182.661 56.1914C181.955 56.5647 180.71 56.9591 178.925 57.3745C177.182 57.7894 175.189 57.9971 172.947 57.9971C170.125 57.9971 167.676 57.5822 165.6 56.7519C163.567 55.8801 161.885 54.697 160.557 53.2027C159.228 51.7083 158.233 49.9441 157.568 47.9101C156.945 45.8347 156.634 43.5723 156.634 41.1232ZM178.863 37.9478C178.904 35.3326 178.24 33.1949 176.87 31.5345C175.542 29.8326 173.695 28.9816 171.329 28.9816C170.001 28.9816 168.817 29.2514 167.779 29.7911C166.784 30.2892 165.932 30.9533 165.227 31.7835C164.521 32.6137 163.961 33.5685 163.546 34.6477C163.172 35.727 162.923 36.827 162.798 37.9478H178.863Z" fill="#A5A8A9"/>
<path d="M200.381 56.7519C202.373 57.5822 204.677 57.9971 207.293 57.9971C208.123 57.9971 208.974 57.935 209.845 57.8104C210.758 57.7273 211.61 57.6027 212.398 57.4365C213.187 57.3119 213.892 57.1668 214.515 57.0006C215.138 56.7934 215.615 56.5857 215.947 56.378L215.138 51.5215C214.432 51.8535 213.457 52.1649 212.211 52.4555C210.966 52.746 209.575 52.8913 208.04 52.8913C206.13 52.8913 204.511 52.6215 203.183 52.0819C201.854 51.5007 200.754 50.6913 199.883 49.6535C199.053 48.6158 198.43 47.3705 198.015 45.9176C197.642 44.4648 197.454 42.8667 197.454 41.1232C197.454 37.2213 198.306 34.2533 200.007 32.2194C201.751 30.1854 204.241 29.1684 207.479 29.1684C208.766 29.1684 209.97 29.2929 211.091 29.542C212.253 29.7911 213.27 30.1231 214.141 30.5382L215.449 25.6193C214.121 25.0797 212.73 24.6853 211.277 24.4363C209.824 24.1872 208.372 24.0627 206.919 24.0627C204.553 24.0627 202.394 24.4986 200.443 25.3703C198.534 26.2005 196.915 27.3835 195.587 28.9193C194.258 30.4137 193.22 32.1986 192.473 34.2741C191.768 36.3496 191.415 38.6327 191.415 41.1232C191.415 43.6139 191.747 45.8969 192.411 47.9724C193.075 50.0064 194.072 51.7706 195.4 53.2649C196.77 54.759 198.43 55.9216 200.381 56.7519Z" fill="#A5A8A9"/>
<path fill-rule="evenodd" clip-rule="evenodd" d="M249.953 41.061C249.953 43.6346 249.58 45.9592 248.832 48.0347C248.085 50.1102 247.027 51.8951 245.657 53.3894C244.329 54.8836 242.731 56.0462 240.862 56.8765C238.995 57.6647 236.961 58.0591 234.761 58.0591C232.561 58.0591 230.527 57.6647 228.658 56.8765C226.791 56.0462 225.172 54.8836 223.802 53.3894C222.474 51.8951 221.436 50.1102 220.688 48.0347C219.941 45.9592 219.568 43.6346 219.568 41.061C219.568 38.5289 219.941 36.2251 220.688 34.1496C221.436 32.0326 222.474 30.2269 223.802 28.7326C225.172 27.2382 226.791 26.0967 228.658 25.308C230.527 24.4778 232.561 24.0627 234.761 24.0627C236.961 24.0627 238.995 24.4778 240.862 25.308C242.731 26.0967 244.329 27.2382 245.657 28.7326C247.027 30.2269 248.085 32.0326 248.832 34.1496C249.58 36.2251 249.953 38.5289 249.953 41.061ZM243.913 41.061C243.913 37.4081 243.083 34.5232 241.423 32.4062C239.804 30.2476 237.583 29.1684 234.761 29.1684C231.938 29.1684 229.696 30.2476 228.036 32.4062C226.417 34.5232 225.608 37.4081 225.608 41.061C225.608 44.7139 226.417 47.6196 228.036 49.7781C229.696 51.8951 231.938 52.9536 234.761 52.9536C237.583 52.9536 239.804 51.8951 241.423 49.7781C243.083 47.6196 243.913 44.7139 243.913 41.061Z" fill="#A5A8A9"/>
<path d="M258.1 57.2499H263.891V24.8722H258.1V57.2499Z" fill="#A5A8A9"/>
<path d="M258.287 18.0231C259.034 18.6872 259.926 19.0193 260.964 19.0193C262.002 19.0193 262.874 18.6872 263.579 18.0231C264.327 17.3174 264.7 16.3834 264.7 15.2211C264.7 14.0589 264.327 13.1456 263.579 12.4815C262.874 11.7758 262.002 11.423 260.964 11.423C259.926 11.423 259.034 11.7758 258.287 12.4815C257.581 13.1456 257.228 14.0589 257.228 15.2211C257.228 16.3834 257.581 17.3174 258.287 18.0231Z" fill="#A5A8A9"/>
<path d="M273.849 25.8061C275.177 25.4741 276.941 25.1212 279.141 24.7476C281.341 24.374 283.874 24.1873 286.738 24.1873C289.311 24.1873 291.449 24.5609 293.151 25.308C294.853 26.0137 296.202 27.0307 297.198 28.359C298.236 29.6458 298.962 31.2024 299.378 33.0288C299.792 34.8553 300 36.8685 300 39.0686V57.2499H294.209V40.3139C294.209 38.3214 294.064 36.6195 293.773 35.2081C293.525 33.7968 293.089 32.6553 292.466 31.7836C291.843 30.9119 291.013 30.2892 289.975 29.9156C288.938 29.5005 287.651 29.293 286.115 29.293C285.492 29.293 284.849 29.3137 284.185 29.3552C283.521 29.3967 282.877 29.459 282.254 29.542C281.673 29.5836 281.134 29.6458 280.635 29.7288C280.179 29.8118 279.847 29.8741 279.64 29.9156V57.2499H273.849V25.8061Z" fill="#A5A8A9"/>
</svg>
