<svg width="300" height="97" viewBox="0 0 300 97" fill="none" xmlns="http://www.w3.org/2000/svg">
<path d="M42.8255 89.1645C64.8932 89.1645 82.7826 71.2134 82.7826 49.0696C82.7826 26.9257 64.8932 8.97461 42.8255 8.97461C20.7577 8.97461 2.86829 26.9257 2.86829 49.0696C2.86829 71.2134 20.7577 89.1645 42.8255 89.1645Z" fill="#26A17B"/>
<path d="M47.0846 52.7697V52.7632C46.8084 52.7826 45.3822 52.8664 42.2088 52.8664C39.6713 52.8664 37.8919 52.7955 37.2623 52.7632V52.7697C27.5043 52.3378 20.2259 50.636 20.2259 48.5926C20.2259 46.5556 27.5107 44.8474 37.2623 44.4155V51.0743C37.8983 51.1195 39.7291 51.229 42.2538 51.229C45.2859 51.229 46.8019 51.1001 47.0846 51.0743V44.4219C56.8234 44.8603 64.0825 46.562 64.0825 48.599C64.0825 50.636 56.8169 52.3378 47.0846 52.7761V52.7697ZM47.0846 43.7322V37.776H60.6713V28.6934H23.682V37.776H37.2688V43.7322C26.2259 44.2414 17.9261 46.4331 17.9261 49.0632C17.9261 51.6932 26.2324 53.8849 37.2688 54.4006V73.494H47.091V54.4006C58.1146 53.8913 66.4015 51.6996 66.4015 49.0696C66.4015 46.446 58.1146 44.2479 47.091 43.7386" fill="white"/>
<path d="M116.724 31.176V40.8066H126.051V48.0327H116.66V62.6848C116.66 65.9207 118.439 67.5 121.047 67.5C122.351 67.5 123.861 67.0875 125.094 66.4686L127.426 73.6239C125.03 74.5843 123.039 74.9969 120.501 75.0678C113.165 75.345 108.366 71.1485 108.366 62.6848V48.0327H102.058V40.8066H108.366V32.0721L116.724 31.176ZM277.535 40.3553L278.152 44.2746C280.76 40.0782 284.255 39.4593 287.685 39.4593C291.18 39.4593 294.54 40.8323 296.39 42.6888L292.619 49.9794C290.904 48.5355 289.33 47.7748 286.587 47.7748C282.199 47.7748 278.152 50.1148 278.152 56.374V74.262H269.788V40.3424L277.535 40.3553ZM257.036 53.3572C256.49 48.9545 253.06 46.7499 248.261 46.7499C243.739 46.7499 240.032 48.9545 238.799 53.3572H257.036ZM238.664 60.3061C239.21 64.5026 242.846 67.5322 248.743 67.5322C251.827 67.5322 255.874 66.3591 257.794 64.3672L263.139 69.6659C259.574 73.3789 253.747 75.1709 248.602 75.1709C236.949 75.1709 230.017 67.9448 230.017 57.0766C230.017 46.7564 237.013 39.324 247.985 39.324C259.298 39.324 266.364 46.3438 265.06 60.3061H238.664ZM201.777 26.1094V44.9579C204.797 41.0386 208.497 39.8654 212.338 39.8654C221.936 39.8654 226.188 46.4018 226.188 56.3804V74.2685H217.824V56.4513C217.824 50.2566 214.6 47.6459 210.141 47.6459C205.201 47.6459 201.777 51.8424 201.777 56.9348V74.2749H193.413V26.1158L201.777 26.1094ZM179.563 30.7893V40.4198H188.891V47.6459H179.499V62.298C179.499 65.534 181.285 67.1133 183.886 67.1133C185.191 67.1133 186.7 66.7007 187.934 66.0819L190.266 73.2371C187.869 74.1976 185.878 74.6101 183.34 74.681C176.004 74.9582 171.206 70.7553 171.206 62.298V47.6459H164.897V40.4198H171.206V31.6853L179.563 30.7893ZM156.456 53.3572C155.91 48.9545 152.48 46.7499 147.681 46.7499C143.158 46.7499 139.452 48.9545 138.218 53.3572H156.456ZM138.083 60.3061C138.63 64.5026 142.266 67.5322 148.163 67.5322C151.246 67.5322 155.293 66.3591 157.214 64.3672L162.559 69.6659C158.994 73.3789 153.167 75.1709 148.021 75.1709C136.362 75.1709 129.437 67.9448 129.437 57.0766C129.437 46.7564 136.433 39.324 147.398 39.324C158.711 39.324 165.771 46.3438 164.473 60.3061H138.083Z" fill="white"/>
</svg>
