<svg width="300" height="68" viewBox="0 0 300 68" fill="none" xmlns="http://www.w3.org/2000/svg">
<path fill-rule="evenodd" clip-rule="evenodd" d="M25.5835 66.205C43.3512 70.6356 61.3448 59.8236 65.774 42.058C70.2031 24.2914 59.3926 6.29465 41.6258 1.86542C23.8633 -2.5638 5.86965 8.24914 1.44249 26.0168C-2.98881 43.7814 7.82309 61.7759 25.5835 66.205ZM40.9357 20.9441C45.5297 22.5265 48.8894 24.8986 48.2293 29.3113C47.7515 32.5415 45.9608 34.1053 43.5835 34.6535C46.8479 36.3531 48.5091 38.9594 46.9266 43.4777C44.9628 49.0894 40.2973 49.563 34.0929 48.3889L32.5871 54.4231L28.9486 53.5166L30.4347 47.5629C29.4916 47.3287 28.5278 47.08 27.535 46.8106L26.0438 52.7924L22.4094 51.8854L23.9152 45.8395C23.5755 45.7525 23.2337 45.6634 22.8894 45.5736C22.3724 45.4388 21.8501 45.3025 21.3213 45.1701L16.5863 43.9897L18.3927 39.8247C18.3927 39.8247 21.0736 40.5377 21.0374 40.4849C22.0674 40.7398 22.5244 40.0683 22.7048 39.6206L25.0842 30.0813C25.1733 30.1027 25.2607 30.1246 25.3449 30.1457C25.387 30.1563 25.4283 30.1666 25.4686 30.1766C25.3236 30.1186 25.1919 30.0813 25.0904 30.0553L26.7879 23.2457C26.8324 22.4726 26.5661 21.4975 25.0925 21.1295C25.1495 21.0912 22.4499 20.4725 22.4499 20.4725L23.4177 16.5863L28.4356 17.8393L28.4314 17.8579C29.1859 18.0455 29.9631 18.2237 30.7549 18.404L32.2461 12.4286L35.8826 13.3354L34.4214 19.1937C35.3976 19.4165 36.38 19.6414 37.3366 19.8798L38.7874 14.0598L42.4259 14.9666L40.9357 20.9441ZM29.4268 42.6163C32.3957 43.4004 38.8844 45.1142 39.916 40.9689C40.973 36.7303 34.6801 35.3183 31.6094 34.6292C31.2663 34.5522 30.9634 34.4843 30.7155 34.4224L28.7175 42.4321C28.9211 42.4827 29.1597 42.5457 29.4268 42.6163ZM32.2264 30.9122C34.7017 31.5728 40.1009 33.0136 41.0414 29.246C42.0018 25.3923 36.7542 24.2306 34.1913 23.6632C33.903 23.5994 33.6487 23.5431 33.441 23.4913L31.6295 30.7559C31.8006 30.7986 32.0014 30.8521 32.2264 30.9122Z" fill="#F7941D"/>
<path fill-rule="evenodd" clip-rule="evenodd" d="M105.036 18.6042C107.414 18.6042 109.469 19.0303 111.195 19.8668C112.929 20.7116 114.36 21.8496 115.508 23.2807C116.641 24.7192 117.484 26.4006 118.028 28.3274C118.568 30.2598 118.84 32.3369 118.84 34.5606C118.84 37.9764 118.214 41.2035 116.951 44.2454C115.687 47.2919 113.973 49.9343 111.792 52.1883C109.613 54.4395 107.041 56.2141 104.074 57.5254C101.111 58.8377 97.8909 59.4936 94.4331 59.4936C93.9859 59.4936 93.1997 59.4806 92.089 59.4577C90.9789 59.4347 89.7025 59.3204 88.2729 59.1272C86.8343 58.9266 85.3133 58.6296 83.7075 58.2317C82.1022 57.8414 80.5772 57.2943 79.1416 56.5999L91.9802 2.65515L103.479 0.873047L98.8822 20.0162C99.8661 19.5727 100.857 19.2291 101.847 18.9789C102.838 18.7325 103.9 18.6042 105.036 18.6042ZM95.3915 50.3714C97.1231 50.3714 98.7549 49.9453 100.288 49.1088C101.825 48.2713 103.152 47.1407 104.263 45.7324C105.375 44.3177 106.254 42.7244 106.896 40.9441C107.537 39.1639 107.861 37.3067 107.861 35.3743C107.861 33.0003 107.464 31.1486 106.674 29.8099C105.883 28.4768 104.42 27.8061 102.295 27.8061C101.599 27.8061 100.702 27.9389 99.5895 28.1762C98.4734 28.4282 97.475 28.9514 96.5795 29.7385L91.6852 50.0681C91.9802 50.1203 92.2413 50.1698 92.4639 50.2165C92.682 50.2669 92.9231 50.3027 93.1627 50.3274C93.4168 50.3558 93.7073 50.3705 94.0582 50.3705C94.2142 50.3705 94.3875 50.3707 94.5796 50.3709H94.5883C94.8263 50.3711 95.0931 50.3714 95.3915 50.3714Z" fill="white"/>
<path d="M130.764 58.4608H119.781L129.056 19.4316H140.114L130.764 58.4608Z" fill="white"/>
<path d="M136.109 14.6763C134.576 14.6763 133.186 14.22 131.952 13.3056C130.709 12.3966 130.094 10.9975 130.094 9.11189C130.094 8.07472 130.304 7.10164 130.722 6.18357C131.146 5.26732 131.7 4.47844 132.395 3.80775C133.089 3.14255 133.892 2.61112 134.805 2.21072C135.723 1.81674 136.7 1.61975 137.74 1.61975C139.272 1.61975 140.655 2.07605 141.893 2.99046C143.126 3.90945 143.746 5.30855 143.746 7.1841C143.746 8.22497 143.537 9.20169 143.115 10.1179C142.697 11.0342 142.142 11.8231 141.448 12.4938C140.759 13.1598 139.949 13.6895 139.038 14.0862C138.119 14.4866 137.146 14.6763 136.109 14.6763Z" fill="white"/>
<path d="M161.244 7.92542L149.74 9.70749L142.464 40.4265C141.872 42.9498 141.528 45.3458 141.426 47.6254C141.328 49.8995 141.679 51.9178 142.464 53.6689C143.26 55.4264 144.591 56.8146 146.473 57.8304C148.358 58.8393 151.003 59.3459 154.415 59.3459C156.788 59.3459 158.841 59.1537 160.576 58.7539C162.307 58.3601 163.914 57.8918 165.399 57.3477L164.58 48.8853C163.442 49.2856 162.317 49.5917 161.208 49.8116C160.092 50.0351 158.938 50.1479 157.753 50.1479C156.314 50.1479 155.217 49.9472 154.452 49.5486C153.682 49.1565 153.151 48.6021 152.856 47.8829C152.559 47.1655 152.434 46.3133 152.488 45.321C152.536 44.3333 152.706 43.2705 153.007 42.1325L156.269 28.4805H168.514L170.739 19.4298H158.419L161.244 7.92542Z" fill="white"/>
<path d="M170.254 42.8756C170.254 39.5139 170.799 36.3437 171.886 33.376C172.972 30.4055 174.536 27.808 176.565 25.5787C178.588 23.3605 181.051 21.6031 183.951 20.3131C186.837 19.0303 190.069 18.3834 193.63 18.3834C195.86 18.3834 197.85 18.5942 199.603 19.0166C201.362 19.4427 202.953 19.9933 204.393 20.6841L200.605 29.2968C199.615 28.8956 198.588 28.5418 197.526 28.2212C196.463 27.8941 195.166 27.7365 193.631 27.7365C189.966 27.7365 187.067 29 184.91 31.5187C182.762 34.0393 181.68 37.4322 181.68 41.6881C181.68 44.2106 182.224 46.2501 183.316 47.8105C184.403 49.3709 186.41 50.1469 189.325 50.1469C190.763 50.1469 192.151 49.9967 193.481 49.7035C194.82 49.4066 196.003 49.0328 197.045 48.5911L197.865 57.4201C196.476 57.9587 194.944 58.4454 193.264 58.8712C191.58 59.283 189.575 59.4962 187.251 59.4962C184.182 59.4962 181.585 59.0474 179.46 58.1634C177.334 57.2654 175.578 56.0734 174.194 54.5634C172.803 53.0494 171.804 51.2823 171.187 49.2536C170.569 47.2269 170.254 45.0975 170.254 42.8756Z" fill="white"/>
<path fill-rule="evenodd" clip-rule="evenodd" d="M212.215 58.3061C214.146 59.0968 216.423 59.4962 219.045 59.4962C222.656 59.4962 225.838 58.7394 228.581 57.2314C231.328 55.7234 233.615 53.7817 235.444 51.4096C237.276 49.0319 238.664 46.3564 239.6 43.3979C240.534 40.4246 241.005 37.4523 241.005 34.4883C241.005 32.1161 240.686 29.9474 240.041 27.9976C239.399 26.0405 238.445 24.3519 237.19 22.9134C235.921 21.4822 234.316 20.3634 232.367 19.5745C230.409 18.7839 228.144 18.3834 225.57 18.3834C222.063 18.3834 218.94 19.1403 216.225 20.6447C213.508 22.1593 211.2 24.1017 209.329 26.4776C207.443 28.8497 206.018 31.5187 205.058 34.4892C204.093 37.4533 203.616 40.4256 203.616 43.3988C203.616 45.7691 203.928 47.9324 204.575 49.8858C205.223 51.8399 206.168 53.5361 207.432 54.9672C208.694 56.4058 210.289 57.5155 212.215 58.3061ZM220.234 29.1438C221.466 28.2101 222.906 27.7374 224.534 27.7374C226.611 27.7374 228.048 28.4319 228.839 29.8127C229.632 31.199 230.03 33.1322 230.03 35.6024C230.03 37.1344 229.818 38.7589 229.403 40.4622C228.978 42.1701 228.346 43.7433 227.504 45.1745C226.66 46.6093 225.621 47.7977 224.391 48.735C223.151 49.6787 221.719 50.1478 220.085 50.1478C218.007 50.1478 216.576 49.4533 215.78 48.0725C214.995 46.6845 214.595 44.7558 214.595 42.2791C214.595 40.7445 214.802 39.1291 215.222 37.4203C215.646 35.7151 216.274 34.1465 217.121 32.708C217.958 31.2759 218.997 30.0885 220.234 29.1438Z" fill="white"/>
<path d="M252.974 58.4608H241.981L251.256 19.4316H262.32L252.974 58.4608Z" fill="white"/>
<path d="M258.31 14.6763C256.778 14.6763 255.389 14.22 254.157 13.3056C252.92 12.3966 252.299 10.9975 252.299 9.11189C252.299 8.07472 252.512 7.10164 252.931 6.18357C253.35 5.26732 253.908 4.47844 254.602 3.80775C255.292 3.14255 256.103 2.61112 257.014 2.21072C257.927 1.81674 258.903 1.61975 259.94 1.61975C261.476 1.61975 262.863 2.07605 264.099 2.99046C265.335 3.90945 265.958 5.30855 265.958 7.1841C265.958 8.22497 265.737 9.20169 265.322 10.1179C264.907 11.0342 264.349 11.8231 263.657 12.4938C262.96 13.1598 262.16 13.6895 261.247 14.0862C260.327 14.4866 259.352 14.6763 258.31 14.6763Z" fill="white"/>
<path d="M273.013 20.3505C272.001 20.6694 271.07 20.9626 270.235 21.2063L261.252 58.4563H272.312L279.511 28.2577C280.998 27.9609 282.455 27.8069 283.887 27.8069C285.372 27.8069 286.467 28.0919 287.192 28.659C287.906 29.2353 288.365 29.9794 288.56 30.8883C288.765 31.8082 288.775 32.871 288.6 34.0768C288.427 35.2936 288.192 36.5388 287.893 37.827L282.997 58.4573H294.053L299.105 37.3835C300.534 31.5489 300.153 26.9457 297.95 23.5821C295.746 20.2186 291.753 18.5317 285.96 18.5317C283.99 18.5317 282.215 18.6179 280.659 18.7948C279.102 18.9679 277.687 19.1915 276.432 19.4673C275.164 19.7348 274.029 20.0317 273.013 20.3505Z" fill="white"/>
</svg>
