<svg width="300" height="300" viewBox="0 0 300 300" fill="none" xmlns="http://www.w3.org/2000/svg">
<path d="M132.168 98.8501H153.6C161.616 98.8501 201.945 102.077 202.009 151.887C202.073 201.104 161.412 201.053 154.871 201.045C154.793 201.045 154.719 201.045 154.65 201.045H132.168V158.795H165.886V141.104H132.168V98.8501Z" fill="#C2A633"/>
<path fill-rule="evenodd" clip-rule="evenodd" d="M0 150C0 67.1565 67.1565 0 150 0C232.844 0 300 67.1565 300 150C300 232.844 232.844 300 150 300C67.1565 300 0 232.844 0 150ZM101.571 231.015H155.895C155.895 231.015 232.277 237.417 232.277 151.304C232.277 68.5287 162.526 68.8222 149.045 68.879C148.73 68.8803 148.445 68.8815 148.193 68.8815H101.57V141.105H82.422V158.796H101.571V231.015Z" fill="#C2A633"/>
</svg>
