<svg width="300" height="73" viewBox="0 0 300 73" fill="none" xmlns="http://www.w3.org/2000/svg">
<path d="M0.0830078 37.1173L21.7725 49.8825V1.09375L0.0830078 37.1173Z" fill="#D0D0D0"/>
<path d="M21.7725 1.09375V49.8825L43.4619 37.0553L21.7725 1.09375Z" fill="#717171"/>
<path d="M85.6429 43.2529C85.6429 43.5049 85.5431 43.7466 85.3649 43.9248C85.1867 44.103 84.9451 44.2031 84.693 44.2031H66.3496C66.4689 46.4652 67.4213 48.6032 69.0231 50.205C70.6255 51.8069 72.7634 52.7593 75.0256 52.8786C76.5091 52.941 77.9832 52.6175 79.3045 51.9407C80.6258 51.2638 81.7494 50.2561 82.5651 49.0158C82.6819 48.8205 82.8665 48.6747 83.0832 48.6062C83.3003 48.5377 83.5349 48.5511 83.7426 48.644C83.8764 48.7031 83.9937 48.7944 84.084 48.9098C84.1739 49.0251 84.2343 49.1608 84.2592 49.305C84.2967 49.5264 84.2522 49.7539 84.1349 49.9453C83.1666 51.4739 81.8133 52.7213 80.211 53.5624C78.6086 54.4035 76.8131 54.8084 75.0052 54.7375C72.0935 54.6087 69.3501 53.3368 67.3704 51.1984C65.3902 49.0602 64.3334 46.2275 64.4288 43.3149C64.3334 40.4023 65.3902 37.5696 67.3704 35.4312C69.3501 33.2928 72.0935 32.0212 75.0052 31.8923C77.9253 32.0054 80.6832 33.2665 82.6794 35.4015C84.675 37.5365 85.7478 40.3729 85.6639 43.2942L85.6429 43.2529ZM83.5983 42.406C83.4925 40.1392 82.5446 37.9934 80.9398 36.3888C79.3349 34.7841 77.189 33.8362 74.9223 33.7306C72.6601 33.85 70.5221 34.8023 68.9203 36.4041C67.318 38.0059 66.3661 40.1439 66.2468 42.406H83.5983ZM107.849 32.3467C108.089 32.352 108.317 32.4494 108.486 32.6187C108.655 32.7881 108.752 33.0162 108.758 33.2555C108.761 33.3757 108.739 33.4951 108.695 33.6067C108.65 33.7182 108.583 33.8195 108.498 33.9045C108.413 33.9895 108.312 34.0563 108.2 34.101C108.089 34.1457 107.969 34.1672 107.849 34.1644H103.015V53.4776C103.015 53.7212 102.919 53.9553 102.746 54.1275C102.574 54.2997 102.34 54.3966 102.096 54.3966C101.852 54.3966 101.618 54.2997 101.446 54.1275C101.274 53.9553 101.177 53.7212 101.177 53.4776V34.1438H96.4464C96.3266 34.1466 96.2068 34.125 96.0955 34.0803C95.9837 34.0356 95.8824 33.9688 95.7975 33.8838C95.7126 33.7989 95.6458 33.6976 95.6013 33.586C95.5564 33.4745 95.5349 33.355 95.5374 33.2349C95.5479 32.9971 95.6468 32.7718 95.815 32.6035C95.9832 32.4352 96.2088 32.3362 96.4464 32.326H101.177V25.2411C101.173 25.0237 101.244 24.8116 101.38 24.6417C101.516 24.4719 101.708 24.3551 101.921 24.3116C102.055 24.2836 102.193 24.2862 102.326 24.3192C102.458 24.3521 102.582 24.4146 102.687 24.502C102.792 24.5893 102.877 24.6993 102.934 24.8237C102.991 24.9481 103.018 25.0838 103.015 25.2205V32.3054H107.932L107.849 32.3467ZM137.946 41.6211V53.3124C137.94 53.5515 137.843 53.7796 137.674 53.9493C137.504 54.1185 137.276 54.2159 137.037 54.2209C136.917 54.2238 136.797 54.2024 136.686 54.1575C136.574 54.113 136.473 54.0461 136.388 53.9613C136.303 53.8764 136.236 53.7751 136.191 53.6633C136.147 53.552 136.125 53.4322 136.128 53.3124V41.6211C136.128 37.6759 133.897 33.7306 129.497 33.7306C123.858 33.7306 121.42 38.6674 121.751 43.7073C121.751 43.8313 121.751 44.4303 121.751 44.4923V53.2709C121.755 53.4886 121.683 53.7007 121.548 53.8704C121.412 54.0401 121.221 54.157 121.007 54.2004C120.873 54.2283 120.735 54.2258 120.602 54.1929C120.469 54.16 120.346 54.0976 120.241 54.0102C120.135 53.9228 120.051 53.8125 119.994 53.6882C119.938 53.5639 119.91 53.4282 119.912 53.2914V14.9133C119.912 14.6695 120.009 14.4358 120.182 14.2633C120.354 14.091 120.588 13.9941 120.832 13.9941C121.075 13.9941 121.309 14.091 121.482 14.2633C121.654 14.4358 121.751 14.6695 121.751 14.9133V36.6431C122.489 35.2373 123.592 34.0562 124.944 33.2239C126.296 32.3916 127.848 31.9387 129.435 31.9129C134.826 31.9129 137.904 36.6431 137.904 41.6418L137.946 41.6211ZM170.81 43.2529C170.81 43.5049 170.71 43.7466 170.532 43.9248C170.354 44.103 170.112 44.2031 169.86 44.2031H151.538C151.657 46.4652 152.609 48.6032 154.211 50.205C155.813 51.8069 157.951 52.7593 160.214 52.8786C161.697 52.941 163.171 52.6175 164.493 51.9407C165.814 51.2638 166.937 50.2561 167.753 49.0158C167.87 48.8205 168.055 48.6747 168.271 48.6062C168.488 48.5377 168.723 48.5511 168.931 48.644C169.064 48.7031 169.182 48.7944 169.272 48.9098C169.362 49.0251 169.422 49.1608 169.447 49.305C169.485 49.5264 169.441 49.7539 169.323 49.9453C168.35 51.4734 166.993 52.7184 165.387 53.556C163.78 54.3936 161.982 54.7939 160.172 54.717C157.261 54.5877 154.518 53.3164 152.538 51.1779C150.558 49.0396 149.501 46.2069 149.596 43.2942C149.505 41.8443 149.713 40.3911 150.206 39.0245C150.698 37.6578 151.466 36.4064 152.461 35.3477C153.455 34.2889 154.656 33.4451 155.99 32.8683C157.323 32.2915 158.761 31.9939 160.214 31.9939C161.666 31.9939 163.104 32.2915 164.437 32.8683C165.771 33.4451 166.972 34.2889 167.967 35.3477C168.962 36.4064 169.729 37.6578 170.221 39.0245C170.714 40.3911 170.922 41.8443 170.831 43.2942L170.81 43.2529ZM168.765 42.406C168.765 40.1052 167.851 37.8986 166.225 36.2716C164.597 34.6447 162.391 33.7306 160.09 33.7306C157.789 33.7306 155.582 34.6447 153.955 36.2716C152.328 37.8986 151.414 40.1052 151.414 42.406H168.765ZM193.264 33.2143C193.276 33.3353 193.263 33.4574 193.226 33.5733C193.189 33.6892 193.129 33.7965 193.05 33.889C192.972 33.9815 192.875 34.0571 192.766 34.1115C192.657 34.1659 192.539 34.198 192.417 34.2057C187.026 34.9906 184.609 39.3903 184.609 44.5335V53.3124C184.613 53.5295 184.542 53.7416 184.406 53.9119C184.27 54.0816 184.079 54.1984 183.866 54.2418C183.731 54.2698 183.593 54.2673 183.46 54.2343C183.328 54.2014 183.204 54.139 183.099 54.0516C182.994 53.9643 182.909 53.854 182.852 53.7297C182.796 53.6054 182.768 53.4696 182.771 53.3328V33.3588C182.767 33.1414 182.838 32.9293 182.974 32.7594C183.11 32.5896 183.301 32.4728 183.514 32.4293C183.648 32.4013 183.787 32.4039 183.92 32.4369C184.052 32.4698 184.176 32.5323 184.281 32.6197C184.386 32.707 184.47 32.817 184.527 32.9414C184.584 33.0658 184.612 33.2014 184.609 33.3382V37.4693C185.377 36.0317 186.491 34.8083 187.851 33.9102C189.21 33.012 190.773 32.4676 192.396 32.326C192.64 32.3089 192.88 32.388 193.066 32.5465C193.252 32.7049 193.367 32.9299 193.388 33.1729L193.264 33.2143ZM223.547 43.2735C223.547 43.5256 223.447 43.7672 223.269 43.9454C223.09 44.1236 222.849 44.2237 222.597 44.2237H204.233C204.352 46.4859 205.304 48.6239 206.906 50.2257C208.508 51.8273 210.647 52.7798 212.909 52.8991C214.392 52.9614 215.866 52.6385 217.188 51.9616C218.509 51.2847 219.633 50.2768 220.448 49.0365C220.565 48.8412 220.749 48.6954 220.966 48.6269C221.184 48.5583 221.418 48.5718 221.626 48.6647C221.76 48.7238 221.877 48.8151 221.967 48.9304C222.057 49.0457 222.117 49.1815 222.142 49.3257C222.18 49.5471 222.135 49.7746 222.018 49.966C221.05 51.4944 219.697 52.7418 218.094 53.5829C216.492 54.424 214.696 54.8293 212.888 54.758C209.977 54.6292 207.233 53.3578 205.254 51.2194C203.273 49.0809 202.217 46.2481 202.312 43.3355C202.222 41.8856 202.429 40.4325 202.921 39.0658C203.414 37.6991 204.181 36.4478 205.176 35.389C206.171 34.3302 207.372 33.4864 208.706 32.9096C210.039 32.3328 211.477 32.0353 212.929 32.0353C214.382 32.0353 215.819 32.3328 217.153 32.9096C218.487 33.4864 219.688 34.3302 220.682 35.389C221.677 36.4478 222.444 37.6991 222.937 39.0658C223.43 40.4325 223.637 41.8856 223.547 43.3355V43.2735ZM221.481 42.4473C221.481 40.1465 220.567 37.9399 218.94 36.3129C217.313 34.686 215.107 33.7719 212.805 33.7719C210.504 33.7719 208.298 34.686 206.671 36.3129C205.044 37.9399 204.129 40.1465 204.129 42.4473H221.481ZM253.127 33.3588V53.4157C253.122 53.6548 253.024 53.8829 252.855 54.0521C252.686 54.2218 252.458 54.3192 252.218 54.3242C252.098 54.3272 251.979 54.3057 251.867 54.2608C251.756 54.2164 251.654 54.1495 251.569 54.0646C251.485 53.9793 251.418 53.8779 251.373 53.7666C251.328 53.6553 251.307 53.5355 251.309 53.4157V49.6355C250.663 51.1345 249.602 52.4184 248.252 53.3363C246.903 54.2548 245.319 54.7694 243.687 54.8199C238.234 54.8199 235.218 50.0899 235.218 45.0913V33.3588C235.218 33.1151 235.315 32.8813 235.487 32.7089C235.659 32.5365 235.894 32.4396 236.137 32.4396C236.381 32.4396 236.615 32.5365 236.787 32.7089C236.96 32.8813 237.057 33.1151 237.057 33.3588V45.1119C237.057 49.0572 239.287 53.0024 243.687 53.0024C249.884 53.0024 251.309 47.2188 251.309 40.8362V33.3588C251.311 33.2163 251.345 33.0759 251.409 32.9486C251.473 32.8212 251.565 32.7103 251.679 32.6244C251.793 32.5386 251.925 32.48 252.065 32.4534C252.205 32.4267 252.35 32.4326 252.487 32.4706C252.669 32.5394 252.827 32.6604 252.941 32.8183C253.055 32.9763 253.119 33.1643 253.127 33.3588ZM299.563 41.6211V53.3743C299.558 53.6134 299.461 53.8415 299.291 54.0112C299.122 54.1804 298.894 54.2778 298.654 54.2832C298.534 54.2857 298.415 54.2643 298.303 54.2199C298.192 54.1749 298.09 54.108 298.005 54.0232C297.921 53.9383 297.854 53.837 297.809 53.7252C297.764 53.6139 297.743 53.4946 297.745 53.3743V41.6211C297.745 37.6759 295.515 33.8133 291.115 33.8133C285.6 33.8133 283.493 39.7208 283.493 44.327V53.3947C283.487 53.6343 283.39 53.8624 283.221 54.0317C283.051 54.2009 282.823 54.2982 282.584 54.3037C282.463 54.3067 282.344 54.2847 282.232 54.2403C282.121 54.1954 282.02 54.129 281.935 54.0436C281.85 53.9588 281.783 53.8575 281.738 53.7461C281.694 53.6343 281.672 53.515 281.675 53.3947V41.6211C281.675 37.6759 279.444 33.8133 275.044 33.8133C269.467 33.8133 267.153 38.2129 267.36 44.1411C267.36 44.265 267.36 44.5335 267.36 44.5955V53.4362C267.364 53.6538 267.292 53.8659 267.156 54.0357C267.02 54.2054 266.829 54.3222 266.616 54.3656C266.482 54.3936 266.344 54.3911 266.211 54.3581C266.078 54.3252 265.954 54.2628 265.85 54.1754C265.744 54.0881 265.66 53.9783 265.603 53.8535C265.547 53.7292 265.518 53.5934 265.521 53.4566V33.3588C265.517 33.1414 265.589 32.9293 265.725 32.7594C265.861 32.5896 266.052 32.4728 266.265 32.4293C266.399 32.4013 266.537 32.4039 266.67 32.4369C266.803 32.4698 266.926 32.5323 267.032 32.6197C267.137 32.707 267.221 32.817 267.278 32.9414C267.335 33.0658 267.363 33.2014 267.36 33.3382V36.6844C268.102 35.2874 269.208 34.1164 270.561 33.2949C271.913 32.4733 273.462 32.0316 275.044 32.0162C276.797 32.036 278.499 32.6131 279.903 33.664C281.306 34.7148 282.34 36.185 282.852 37.8618C283.495 36.1781 284.623 34.7233 286.094 33.6825C287.566 32.6416 289.313 32.0616 291.115 32.0162C296.506 32.0162 299.584 36.6638 299.584 41.6624" fill="white"/>
<path d="M21.7725 27.1621L0.0830078 37.1181L21.7725 49.8833L43.462 37.0562L21.7725 27.1621Z" fill="#595959"/>
<path d="M0.0830078 41.2285L21.7725 71.8197V54.0144L0.0830078 41.2285Z" fill="#D0D0D0"/>
<path d="M21.7725 54.0136V71.7775L43.4826 41.207L21.7725 54.0136Z" fill="#717171"/>
<path fill-rule="evenodd" clip-rule="evenodd" d="M21.7725 27.1621L0.0830078 37.1182L21.7725 49.8832V27.1621Z" fill="#A3A3A3"/>
</svg>
